<svg width="24" height="24" viewBox="0 0 24 24" fill="none" xmlns="http://www.w3.org/2000/svg">
<path d="M12 10.2857C12.5681 10.2857 13.0286 10.7462 13.0286 11.3143V18.1714C13.0286 18.7395 12.5681 19.2 12 19.2C11.4319 19.2 10.9714 18.7395 10.9714 18.1714V11.3143C10.9714 10.7462 11.4319 10.2857 12 10.2857Z" fill="#040404"/>
<path d="M12 7.88571C12.7574 7.88571 13.3714 7.2717 13.3714 6.51429C13.3714 5.75687 12.7574 5.14286 12 5.14286C11.2426 5.14286 10.6286 5.75687 10.6286 6.51429C10.6286 7.2717 11.2426 7.88571 12 7.88571Z" fill="#040404"/>
<path fill-rule="evenodd" clip-rule="evenodd" d="M0 12C0 5.37258 5.37258 0 12 0C18.6274 0 24 5.37258 24 12C24 18.6274 18.6274 24 12 24C5.37258 24 0 18.6274 0 12ZM12 2.05714C6.50871 2.05714 2.05714 6.50871 2.05714 12C2.05714 17.4913 6.50871 21.9429 12 21.9429C17.4913 21.9429 21.9429 17.4913 21.9429 12C21.9429 6.50871 17.4913 2.05714 12 2.05714Z" fill="#040404"/>
</svg>
